# xmcd
#
# Track frame offsets: 
#        150
#        28654
#        49442
#        79975
#        103188
#        127852
#        140698
#        165073
#        187579
#        206323
#        224181
#
# Disc length: 3248 seconds
#
# Revision: 25
# Processed by: cddbd v1.5.2PL0 Copyright (c) Steve Scherf et al.
# Submitted via: ExactAudioCopy v0.99pb4
#
DISCID=970cae0b
DTITLE=Sade - Promise
DYEAR=1985
DGENRE=Pop
TTITLE0=Is it a crime
TTITLE1=The sweetest taboo
TTITLE2=War of the hearts
TTITLE3=You're not the man
TTITLE4=Jezebel
TTITLE5=Mr. Wrong
TTITLE6=Punch drunk
TTITLE7=Never as good as the first time
TTITLE8=Fear
TTITLE9=Tar baby
TTITLE10=Maureen
EXTD=YEAR: 1985
EXTT0=
EXTT1=
EXTT2=
EXTT3=
EXTT4=
EXTT5=
EXTT6=
EXTT7=
EXTT8=
EXTT9=
EXTT10=
PLAYORDER=
